<mxfile host="app.diagrams.net" modified="2024-01-05T02:18:02.737Z" agent="Mozilla/5.0 (Windows NT 10.0; Win64; x64) AppleWebKit/537.36 (KHTML, like Gecko) Chrome/119.0.0.0 Safari/537.36 OPR/105.0.0.0" version="22.1.16" etag="co3yaXzdET8q8Gsy8teE" type="github">
  <diagram name="Page-1" id="MGTf46d2yoiUZsS4jPMk">
    <mxGraphModel>
      <root>
        <mxCell id="0" />
        <mxCell id="1" parent="0" />
      </root>
    </mxGraphModel>
  </diagram>
</mxfile>
